# xmcd
#
# Track frame offsets:
#	150
#	12569
#	24080
#	33394
#	43325
#	53014
#	64068
#	75463
#	88692
#	100760
#	113189
#	126292
#	145342
#	155079
#	168384
#
# Disc length: 2467 seconds
#
# Revision: 0
# Processed by: cddbd v1.5.2PL0 Copyright (c) Steve Scherf et al.
# Submitted via: dBpowerAMP V4.0
#
DISCID=c309a10f
DTITLE=Ed Gary - Old  Country's Back in Town
DYEAR=2007
DGENRE=country
TTITLE0=The Wild Side of Life
TTITLE1=Full Time Job
TTITLE2=Honky Tonk Song
TTITLE3=He'll have to go
TTITLE4=Walk on by
TTITLE5=Hello Walls
TTITLE6=San Antonio Rose
TTITLE7=Make the World go away
TTITLE8=Strangers
TTITLE9=Four in the Morning
TTITLE10=The Lord Knows I'm Drinking
TTITLE11=Old Dogs, Children and Watermellon Wine
TTITLE12=Country is
TTITLE13=I overlooked an Orchid
TTITLE14=Blanket on the Ground
EXTD=
EXTT0=
EXTT1=
EXTT2=
EXTT3=
EXTT4=
EXTT5=
EXTT6=
EXTT7=
EXTT8=
EXTT9=
EXTT10=
EXTT11=
EXTT12=
EXTT13=
EXTT14=
PLAYORDER=
